<?xml version="1.0" encoding="UTF-8"?><svg id="a" xmlns="http://www.w3.org/2000/svg" viewBox="0 0 311.8998 311.8999">
<title>DFB_2025-logo - brandlogos.net</title><path d="M259.8622,251.9152l10.6504,9.8448c-16.5367,17.8963-37.2143,31.9098-60.5122,40.5173l-5.0207-13.6097c21.1307-7.8084,39.8854-20.5196,54.8825-36.7525ZM155.9499,297.3968c-13.2937,0-26.1607-1.8342-38.3594-5.2637l-3.9378,13.9613c13.4502,3.7834,27.6375,5.8055,42.2972,5.8055,14.6969,0,28.9198-2.0336,42.4015-5.8341l-3.9378-13.9628c-12.2287,3.4496-25.1314,5.2938-38.4637,5.2938ZM52.1,251.9831l-10.6499,9.8448c16.5495,17.8898,37.2399,31.8933,60.5493,40.4873l5.0214-13.6097c-21.1421-7.7948-39.909-20.496-54.9208-36.7225ZM278.4661,252.4499c20.9384-26.5474,33.4337-60.0648,33.4337-96.4999C311.8998,69.821,242.0788,0,155.9499,0S0,69.821,0,155.95c0,36.4673,12.5167,70.0104,33.4884,96.5692l11.3889-8.9814c-19.0214-24.0885-30.3739-54.5122-30.3739-87.5879C14.5034,77.8309,77.8309,14.5034,155.9499,14.5034s141.4468,63.3276,141.4468,141.4466c0,33.0442-11.3316,63.4422-30.3201,87.52l11.3895,8.9799ZM253.7014,172.8662v22.0142l-93.8216,54.1677v-22.0121l74.7609-43.1628-29.3072-16.9206-64.5165,37.2486v55.8525l-19.0621-11.0057v-33.8412l-29.3072,16.9206-19.07-11.01V90.7758l19.0692-11.01,29.3079,16.9206v-33.8412l19.0621-11.0058,38.1256,22.0115v22.0121l-38.1256-22.0121v33.8412l38.1256,22.0121v22.0113l-38.1256-22.0113v52.4858l93.8245-54.1699-36.636-21.1514v-22.0113l55.696,32.1557v22.0149l-29.3051,16.9192,29.3051,16.9192ZM121.7549,118.6985l-29.3144-16.9249v108.3462l29.3144-16.9242v-74.4971Z" style="fill:#004941;"/></svg>